PathFileType	4	(X/Y/Z)	path1_23_0-642.trc
DataRate	CameraRate	NumFrames	NumMarkers	Units	OrigDataRate	OrigDataStartFrame	OrigNumFrames
30	30	7	22	m	30	240	642
Frame#	Time	Hip			RHip			RKnee			RAnkle			RBigToe			RSmallToe			RHeel			LHip			LKnee			LAnkle			LBigToe			LSmallToe			LHeel			Neck			Head			Nose			RShoulder			RElbow			RWrist			LShoulder			LElbow			LWrist		
		X1	Y1	Z1	X2	Y2	Z2	X3	Y3	Z3	X4	Y4	Z4	X5	Y5	Z5	X6	Y6	Z6	X7	Y7	Z7	X8	Y8	Z8	X9	Y9	Z9	X10	Y10	Z10	X11	Y11	Z11	X12	Y12	Z12	X13	Y13	Z13	X14	Y14	Z14	X15	Y15	Z15	X16	Y16	Z16	X17	Y17	Z17	X18	Y18	Z18	X19	Y19	Z19	X20	Y20	Z20	X21	Y21	Z21	X22	Y22	Z22
241	8.033333333333333	2.5018431114916724	0.8332810261949835	0.5780485225523726	2.507620508569301	0.7932213543020133	0.5011970236239406	2.4927632712452334	0.4651977751760782	0.49326095158086863	2.557944864270113	0.09980271554989732	0.5305455719598907	2.362637141421528	0.02379480367108075	0.5000519402201703	2.3997272824421616	0.021114431162159393	0.4444829107895619	2.60812166492947	0.033432804095253475	0.5380735012597889	2.4989630668899836	0.7929539312233483	0.6600422776135288	2.514309283270975	0.4311833715584485	0.6552763078763327	2.555124814048673	0.08945816355430689	0.6383080754918947	2.3808042279826274	0.01771358555108553	0.6642366855312464	2.4165257637663453	0.01545825262558778	0.7101813553157292	2.5886176143617083	0.03546140749237464	0.6409245005215558	2.455047045500162	1.4726106884414043	0.5903367856336219	2.4289779381448358	1.7169708802808894	0.5352289219119735	2.319009392006556	1.6115401132050584	0.5647409090100155	2.506301619048389	1.3628720699688939	0.4076512421972862	2.5246156705910896	1.0790892779247534	0.38454060392374856	2.4943023991010853	0.8474417221356492	0.3658505778317516	2.4643409634242204	1.3496850385503922	0.7495964216668871	2.5091363398600333	1.0718950833179142	0.782672527128192	2.508290999156686	0.8377940916066791	0.7820741508098414
242	8.066666666666666	2.501766452226623	0.8332787034686436	0.5780953603591387	2.5071310914436395	0.7927411562291716	0.501182163175609	2.492712779243151	0.4652023103059802	0.49294627935185104	2.5589587952845605	0.09949824238915783	0.5318831223912757	2.3626233355605977	0.023719382158612187	0.4998482718352583	2.3997427208231534	0.021166128906496735	0.44422010933679223	2.608663596682989	0.03315045266717959	0.538056354006185	2.498584746293188	0.7921774711872108	0.6596121326337593	2.514105247175006	0.4313634935047672	0.6504887957719289	2.5545427490903947	0.08995938271998545	0.6384676584640847	2.3806870268920477	0.017889452830374915	0.6640765032001917	2.416250825333688	0.015889657917436	0.7102159913277564	2.587507617190145	0.03652209244717376	0.6409322947808369	2.4546936431943402	1.4728546362793042	0.5902192438157302	2.429876686495005	1.7165389036470156	0.5363374192456267	2.3190006898700344	1.611968558959901	0.5649883349680993	2.504998783091224	1.3608814607499045	0.40525192918193204	2.529039652705368	1.07865217612222	0.3912292851738662	2.4940683436560485	0.8472949630961074	0.3661125144834599	2.4645970963727204	1.3500004660608598	0.7490421259694102	2.509089010202491	1.0721088813186288	0.7827382217964526	2.5081688600015326	0.838285093737595	0.7822326943111964
243	8.1	2.5017613070528673	0.8333279357671207	0.5781526603568973	2.5068085912385594	0.7924863205811965	0.5011996259817255	2.492671050095428	0.465221970806317	0.4926677228774329	2.5603776797992976	0.0987032412363384	0.5340541332756765	2.362650831072302	0.023716141138293404	0.49973046594426324	2.3998786906409744	0.02123503998609878	0.4438559122565833	2.6090685483702942	0.03314187997816711	0.5382406289506599	2.498249935253009	0.7917677623735191	0.6594148833369639	2.5138013063203437	0.43166965271791796	0.644992495897022	2.5530152870729776	0.09180390860165984	0.6389096112305744	2.3808324262473164	0.017900409102888048	0.6639012168145584	2.416250744998949	0.016300914925123096	0.710311566669398	2.586504221447368	0.03738168370977547	0.6409002466524595	2.4545191528996386	1.4730440178968272	0.5901619725911357	2.4304966030361324	1.7162942814667388	0.5375134557890284	2.319099303234708	1.6122265407365695	0.5655539885517684	2.5045150354122994	1.3601065494267632	0.40458592989938	2.532104664012424	1.0784520497314565	0.3957752361509502	2.4939399908769113	0.8471925642203265	0.36632657409949126	2.465335567121024	1.3504559074945774	0.7478261091850229	2.509145604840243	1.0722699468963444	0.7827433289428644	2.5080468739844175	0.8388449643173894	0.7824364777538106
244	8.133333333333333	2.501871318328175	0.8334342254057511	0.5782328765956991	2.5068078179171636	0.7925712423225916	0.5013408622348524	2.4926582417656435	0.46531193394700054	0.4924851813762076	2.5616483965981662	0.09794478022170394	0.536141418184043	2.362674753035777	0.023774329757547466	0.49970368721081504	2.400159761174986	0.021299221868371836	0.44348255846965295	2.6092624527205306	0.033425642450566506	0.5386797135199681	2.4980290195693793	0.7919375386594336	0.6595365565257136	2.5134450783705216	0.43202814475163326	0.6406269220734068	2.5505650594523184	0.09493034421029134	0.6396219187327208	2.3812866120966394	0.017680510932734223	0.6636991293142934	2.4163333766385517	0.01635867836044651	0.7101612478260829	2.5855142119190493	0.03802853896347266	0.6408581538651744	2.4545138026603874	1.4731680501742401	0.5901637056664261	2.4307246830291054	1.7162997729705278	0.5383916185275653	2.319276262927102	1.6122788288259906	0.5662624226972608	2.5050143014986594	1.360817156466439	0.40601912676176705	2.5335968198913554	1.0784249724624824	0.39802942170767774	2.493924169289463	0.8471401088815668	0.3664428401098971	2.466307978036909	1.3510092544865626	0.7463093688882979	2.509274334067283	1.072378299235963	0.7827792810173533	2.507915683395775	0.8394081075910454	0.7827213284561008
245	8.166666666666666	2.502148494798914	0.8336015283719512	0.5783634079663011	2.507129505019689	0.7930037859375907	0.5016571544383464	2.4926654598245173	0.46547721665555536	0.4924072092807323	2.5624610262805168	0.09755128634006727	0.5376168544908885	2.3626368851973076	0.02387079779276024	0.49975986278570117	2.400498312952377	0.021358151254291118	0.44323548499731025	2.6090521877385755	0.034018978177077254	0.5391411655182967	2.4979249322334103	0.7927116143794871	0.6599416621662758	2.5130745874282705	0.4323532992175263	0.6382972900361783	2.547427753568211	0.09896768182691934	0.6404621999134235	2.382066390308178	0.017166684875275454	0.6634457791426834	2.4163301976900966	0.016010599948165838	0.7096470821508728	2.584428670501361	0.038464588271756035	0.6408036229681592	2.4546626795739868	1.4732360015658768	0.5902292504216654	2.4305731712396113	1.7165752327470067	0.5388280762359382	2.3195155687162097	1.6121148601727069	0.5669641247166435	2.5061543059204556	1.3625716836724433	0.40884860413013735	2.5337299404360167	1.078423059880871	0.39839758150875326	2.4940031405754395	0.8471196948353562	0.3664625927062915	2.467012520505341	1.3515088027338278	0.7453805507939631	2.509453921194145	1.0724359512645116	0.7829333886351167	2.507774372104167	0.8398893836076085	0.7830713742826123
246	8.2	2.502605065530916	0.8338287185000255	0.5785901898201833	2.50765762535264	0.793710064549238	0.502123943968213	2.492668491390022	0.4656736959282941	0.4924173598908918	2.5627278261124835	0.09759716571120257	0.5383283299344452	2.3625302810906263	0.023995848003790735	0.4999279652327441	2.400743096856662	0.021435890509429706	0.4432455489187929	2.6081861173005527	0.03492797706381718	0.5392466673555013	2.497946835048484	0.7939387590083663	0.6605439078204339	2.5127722294061976	0.4326211356066633	0.6382925612642391	2.5443544857289204	0.10297776499604325	0.6411826275741676	2.3830904706776286	0.016349384084611326	0.6631281091394219	2.416147539489437	0.015353733308837292	0.7087882232605399	2.583473701491873	0.03865343830657057	0.6407828150484366	2.4549754067223915	1.4732504451333055	0.5903468891089712	2.4301104847647483	1.7170955612381504	0.5389594710554502	2.3198206211542054	1.6117608961300867	0.5675826262977529	2.507270572135114	1.364394614440102	0.4115297559058578	2.5328995695232375	1.07834495786775	0.3973371698098674	2.4941452052835156	0.8471075071787563	0.36641717833688675	2.467211861615071	1.3518103693701151	0.7456038080341557	2.5096971703429194	1.0724376153825752	0.7832212043014368	2.507658762039501	0.8401852764704807	0.7834288098460823
247	8.233333333333333	2.503167315542245	0.8340875775058311	0.5789516812170548	2.5082131108886228	0.7945350485168139	0.502664211243712	2.492633362397154	0.4658502873619131	0.4924817446916583	2.562471964330814	0.09800560941554871	0.5382800275822024	2.3624301431824564	0.024147254465547295	0.5002651669511656	2.400823711983047	0.021558688181650083	0.4435588819495986	2.606575173585394	0.0360464670816741	0.5387491206667795	2.49813251983911	0.7952908027482362	0.6612545461862498	2.5126820972090966	0.43283566205203816	0.6407058274273575	2.5424171875847708	0.10566459778643543	0.6415244461877708	2.3841497449077154	0.015348783399748428	0.6627589073658445	2.4157553070429123	0.014820051480781382	0.7079161626483819	2.5831938726896415	0.03852075492090685	0.640902213197148	2.455436766509772	1.473213716419151	0.5904920447263861	2.4294661346038415	1.7177565747089967	0.5389042264101634	2.3201884960203527	1.6113152566607243	0.5680611856075864	2.5078209251422616	1.365449940590469	0.4127602475781251	2.531576861480052	1.0781903876023473	0.39534239204181976	2.4943100531192206	0.8471090103739839	0.366348774428071	2.467035567578171	1.3518287496495114	0.7469194188311501	2.510015817898535	1.0723996237251778	0.7835831195905032	2.5076145538051056	0.8402261604613773	0.7837149641072276
